HIERARCHY
ROOT Hips
{
	OFFSET 0.00000 0.00000 0.00000
	CHANNELS 6 Xposition Yposition Zposition Zrotation Yrotation Xrotation 
	JOINT LHipJoint
	{
		OFFSET 0 0 0
		CHANNELS 3 Zrotation Yrotation Xrotation
		JOINT LeftUpLeg
		{
			OFFSET 1.64549 -1.70879 0.84566
			CHANNELS 3 Zrotation Yrotation Xrotation
			JOINT LeftLeg
			{
				OFFSET 2.24963 -6.18082 0.00000
				CHANNELS 3 Zrotation Yrotation Xrotation
				JOINT LeftFoot
				{
					OFFSET 2.71775 -7.46697 0.00000
					CHANNELS 3 Zrotation Yrotation Xrotation
					JOINT LeftToeBase
					{
						OFFSET 0.18768 -0.51564 2.24737
						CHANNELS 3 Zrotation Yrotation Xrotation
						End Site
						{
							OFFSET 0.00000 -0.00000 1.15935
						}
					}
				}
			}
		}
	}
	JOINT RHipJoint
	{
		OFFSET 0 0 0
		CHANNELS 3 Zrotation Yrotation Xrotation
		JOINT RightUpLeg
		{
			OFFSET -1.58830 -1.70879 0.84566
			CHANNELS 3 Zrotation Yrotation Xrotation
			JOINT RightLeg
			{
				OFFSET -2.25006 -6.18201 0.00000
				CHANNELS 3 Zrotation Yrotation Xrotation
				JOINT RightFoot
				{
					OFFSET -2.72829 -7.49593 0.00000
					CHANNELS 3 Zrotation Yrotation Xrotation
					JOINT RightToeBase
					{
						OFFSET -0.21541 -0.59185 2.10643
						CHANNELS 3 Zrotation Yrotation Xrotation
						End Site
						{
							OFFSET -0.00000 -0.00000 1.09838
						}
					}
				}
			}
		}
	}
	JOINT LowerBack
	{
		OFFSET 0 0 0
		CHANNELS 3 Zrotation Yrotation Xrotation
		JOINT Spine
		{
			OFFSET 0.03142 2.10496 -0.11038
			CHANNELS 3 Zrotation Yrotation Xrotation
			JOINT Spine1
			{
				OFFSET -0.01863 2.10897 -0.06956
				CHANNELS 3 Zrotation Yrotation Xrotation
				JOINT Neck
				{
					OFFSET 0 0 0
					CHANNELS 3 Zrotation Yrotation Xrotation
					JOINT Neck1
					{
						OFFSET -0.02267 1.73238 0.00451
						CHANNELS 3 Zrotation Yrotation Xrotation
						JOINT Head
						{
							OFFSET -0.05808 1.54724 -0.61749
							CHANNELS 3 Zrotation Yrotation Xrotation
							End Site
							{
								OFFSET -0.01396 1.71468 -0.21082
							}
						}
					}
				}
				JOINT LeftShoulder
				{
					OFFSET 0 0 0
					CHANNELS 3 Zrotation Yrotation Xrotation
					JOINT LeftArm
					{
						OFFSET 3.44898 0.50298 0.21920
						CHANNELS 3 Zrotation Yrotation Xrotation
						JOINT LeftForeArm
						{
							OFFSET 5.41917 -0.00000 -0.00000
							CHANNELS 3 Zrotation Yrotation Xrotation
							JOINT LeftHand
							{
								OFFSET 2.44373 -0.00000 0.00000
								CHANNELS 3 Zrotation Yrotation Xrotation
								JOINT LeftFingerBase
								{
									OFFSET 0 0 0
									CHANNELS 3 Zrotation Yrotation Xrotation
									JOINT LeftHandIndex1
									{
										OFFSET 0.72750 -0.00000 0.00000
										CHANNELS 3 Zrotation Yrotation Xrotation
										End Site
										{
											OFFSET 0.58653 -0.00000 0.00000
										}
									}
								}
								JOINT LThumb
								{
									OFFSET 0 0 0
									CHANNELS 3 Zrotation Yrotation Xrotation
									End Site
									{
										OFFSET 0.59549 -0.00000 0.59549
									}
								}
							}
						}
					}
				}
				JOINT RightShoulder
				{
					OFFSET 0 0 0
					CHANNELS 3 Zrotation Yrotation Xrotation
					JOINT RightArm
					{
						OFFSET -3.23015 0.55830 0.31051
						CHANNELS 3 Zrotation Yrotation Xrotation
						JOINT RightForeArm
						{
							OFFSET -5.58976 -0.00010 0.00014
							CHANNELS 3 Zrotation Yrotation Xrotation
							JOINT RightHand
							{
								OFFSET -2.48060 -0.00000 0.00000
								CHANNELS 3 Zrotation Yrotation Xrotation
								JOINT RightFingerBase
								{
									OFFSET 0 0 0
									CHANNELS 3 Zrotation Yrotation Xrotation
									JOINT RightHandIndex1
									{
										OFFSET -0.81601 -0.00000 0.00000
										CHANNELS 3 Zrotation Yrotation Xrotation
										End Site
										{
											OFFSET -0.65789 -0.00000 0.00000
										}
									}
								}
								JOINT RThumb
								{
									OFFSET 0 0 0
									CHANNELS 3 Zrotation Yrotation Xrotation
									End Site
									{
										OFFSET -0.66793 -0.00000 0.66793
									}
								}
							}
						}
					}
				}
			}
		}
	}
}
MOTION
Frames: 8
Frame Time: 0.008333
4.322800 16.592900 -15.236200 0.000000 0.000000 0.000000 0.000000 0.000000 0.000000 -21.000000 0.000000 0.000000 0.000000 0.000000 0.000000 0.000000 0.000000 0.000000 0.000000 0.000000 0.000000 0.000000 0.000000 0.000000 21.000000 0.000000 0.000000 0.000000 0.000000 0.000000 0.000000 0.000000 0.000000 0.000000 0.000000 0.000000 0.000000 0.000000 0.000000 0.000000 0.000000 0.000000 0.000000 0.000000 0.000000 0.000000 0.000000 -16.000000 0.000000 0.000000 21.000000 0.000000 0.000000 11.000000 0.000000 0.000000 0.000000 -8.000000 0.000000 0.000000 0.000000 0.000000 0.000000 0.000000 0.000000 0.000000 0.000000 0.000000 0.000000 0.000000 0.000000 0.000000 0.000000 0.000000 0.000000 0.000000 0.000000 0.000000 8.000000 0.000000 0.000000 0.000000 0.000000 0.000000 0.000000 0.000000 0.000000 0.000000 0.000000 0.000000 0.000000 0.000000 0.000000 0.000000 0.000000 0.000000 
4.322800 16.592900 -15.236200 -3.200000 9.033800 30.179500 0.000000 0.000000 0.000000 -26.207800 10.581600 -26.766300 4.322700 12.577900 37.808200 -3.491400 47.639300 22.192600 0.294300 3.488500 9.641900 0.000000 0.000000 0.000000 28.597400 18.482100 -41.035100 -2.437500 -9.723300 28.085300 -1.752600 -21.229600 -39.835000 -1.022000 -6.431200 18.040800 3.953400 -3.012000 -18.546000 5.282800 -4.538700 -11.668700 2.640000 -2.313300 -2.080300 -2.878200 -8.360500 -14.273300 -2.820500 -11.072600 39.370800 -2.721600 -5.448700 16.537800 0.000000 -0.000000 0.000000 -86.215800 26.434300 31.061300 17.646700 -27.702400 -4.383700 -0.000000 0.000000 -6.256600 2.228600 16.259200 0.624300 -7.125000 0.000000 -0.000000 -23.480100 44.862900 0.084200 0.000000 -0.000000 0.000000 74.359200 -21.454300 29.501200 -12.963400 21.233600 -2.440000 0.000000 -0.000000 -18.926200 4.675300 12.413600 1.007200 7.125000 -0.000000 -0.000000 21.786600 -17.952700 15.148400 
4.326000 16.583400 -15.233800 -3.213800 9.092700 30.173200 0.000000 0.000000 0.000000 -26.129900 10.429600 -26.708400 4.350900 12.613300 37.937500 0.897800 41.102200 32.817800 0.182900 -2.754800 -7.596800 0.000000 0.000000 0.000000 28.918700 17.923200 -40.941300 -2.411300 -9.674900 27.930100 -2.109500 -19.876300 -40.257400 -1.268100 -7.137600 20.123600 3.996100 -3.005000 -18.493800 5.317600 -4.525600 -11.761300 2.663700 -2.308900 -2.210100 -2.944800 -8.198100 -14.382700 -2.681900 -10.875000 39.682700 -2.644600 -5.344500 16.752000 -0.000000 -0.000000 0.000000 -86.298300 26.460400 31.037600 17.517100 -27.534400 -4.323700 -0.000000 0.000000 -6.102800 2.130000 16.306900 0.598300 -7.125000 0.000000 -0.000000 -23.585000 44.894900 0.064900 -0.000000 -0.000000 0.000000 74.379200 -21.520400 29.453800 -12.914700 21.162100 -2.422400 0.000000 -0.000000 -18.548500 3.388900 12.192400 0.716500 7.125000 -0.000000 -0.000000 20.979500 -18.156400 14.396200 
4.324300 16.578700 -15.237100 -3.240600 9.073000 30.208700 0.000000 0.000000 0.000000 -26.096500 10.386300 -26.789100 4.358700 12.623000 37.973300 0.540000 41.925300 32.052500 0.119900 -2.231900 -6.146900 0.000000 0.000000 0.000000 29.014200 17.853500 -40.908800 -2.400900 -9.655500 27.868300 -2.359600 -19.172100 -40.800500 -1.426500 -7.552500 21.363000 4.000200 -2.956100 -18.478100 5.311400 -4.455900 -11.826400 2.670600 -2.274600 -2.292100 -2.870900 -7.953200 -14.545100 -2.534900 -10.595000 40.005400 -2.573500 -5.183000 16.976400 -0.000000 0.000000 0.000000 -86.238300 26.409900 31.211300 17.422100 -27.410800 -4.279800 -0.000000 0.000000 -6.091300 1.958300 16.460800 0.555100 -7.125000 0.000000 -0.000000 -23.797200 45.015500 -0.009600 -0.000000 0.000000 0.000000 74.490700 -21.560500 29.364600 -12.930700 21.185600 -2.428200 0.000000 -0.000000 -18.213500 2.260700 12.297200 0.481700 7.125000 -0.000000 -0.000000 20.227900 -18.050000 13.856900 
4.320300 16.578200 -15.240100 -3.198700 9.055000 30.246100 0.000000 0.000000 0.000000 -26.110600 10.306900 -26.829000 4.362100 12.627300 37.988900 0.498900 42.235500 32.118100 0.122800 -2.258900 -6.221800 0.000000 0.000000 0.000000 28.896100 18.065000 -40.872400 -2.392200 -9.639200 27.816200 -2.345000 -19.385100 -40.913800 -1.426400 -7.552200 21.361900 3.908700 -2.952600 -18.479100 5.308600 -4.435400 -11.862900 2.723800 -2.259700 -2.324600 -2.612500 -7.530300 -14.923600 -2.505200 -10.046800 40.401000 -2.550400 -4.895400 17.274600 0.000000 -0.000000 0.000000 -86.265300 26.302500 31.144200 17.361800 -27.332300 -4.252100 -0.000000 0.000000 -6.014700 1.921700 16.450600 0.544400 -7.125000 0.000000 -0.000000 -23.824800 45.001900 -0.001200 0.000000 -0.000000 0.000000 74.547900 -21.518400 29.333500 -12.892000 21.128800 -2.414200 0.000000 -0.000000 -18.022500 1.439700 13.106000 0.326500 7.125000 -0.000000 -0.000000 19.597900 -17.278800 13.723800 
4.319400 16.578200 -15.238100 -3.148600 9.038600 30.279800 0.000000 0.000000 0.000000 -26.143000 10.283100 -26.815000 4.360900 12.625800 37.983400 -0.211900 43.196200 30.207400 0.020300 -0.919300 -2.526700 0.000000 0.000000 0.000000 28.878900 17.983300 -40.900000 -2.386000 -9.627700 27.779300 -2.360900 -19.250100 -40.872400 -1.445600 -7.600700 21.507800 3.829400 -2.941800 -18.526100 5.288300 -4.408100 -11.924700 2.751500 -2.242400 -2.364100 -2.367300 -7.323100 -15.401800 -2.566600 -9.814600 41.036200 -2.644200 -4.743300 17.734200 0.000000 0.000000 0.000000 -86.241400 26.325600 31.160600 17.371600 -27.345000 -4.256600 -0.000000 0.000000 -5.987000 1.758400 16.690900 0.505200 -7.125000 0.000000 -0.000000 -24.066500 45.202000 -0.127500 0.000000 0.000000 0.000000 74.594300 -21.560900 29.440700 -12.819400 21.022000 -2.388100 0.000000 -0.000000 -17.907100 0.509500 14.071300 0.123900 7.125000 -0.000000 -0.000000 18.891300 -16.349500 13.575800 
4.321700 16.578100 -15.232700 -3.216300 9.027900 30.237700 0.000000 0.000000 0.000000 -26.065900 10.331400 -26.743700 4.357800 12.621900 37.969000 2.464300 40.297300 38.003500 0.226800 -3.065300 -8.460600 0.000000 0.000000 0.000000 29.078500 17.708500 -40.904700 -2.385200 -9.626100 27.774300 -2.342600 -19.064900 -40.632800 -1.441900 -7.591300 21.479600 3.931600 -2.884400 -18.495100 5.258800 -4.337800 -12.027200 2.682400 -2.214400 -2.505300 -1.962800 -7.063000 -16.334600 -2.829100 -9.503100 42.175100 -2.905600 -4.536300 18.605800 0.000000 0.000000 0.000000 -86.164200 26.550900 31.226400 17.432000 -27.423700 -4.284400 -0.000000 0.000000 -5.963500 1.795700 16.883600 0.521700 -7.125000 0.000000 -0.000000 -24.115100 45.382200 -0.241800 0.000000 0.000000 0.000000 74.681300 -21.851800 29.626100 -12.909600 21.154600 -2.420500 0.000000 -0.000000 -17.794300 -0.576600 14.592900 -0.145300 7.125000 -0.000000 -0.000000 18.135200 -15.826800 13.187700 
4.322500 16.575700 -15.229000 -3.365000 9.037500 30.209500 0.000000 0.000000 0.000000 -25.895800 10.310300 -26.702700 4.353600 12.616600 37.949600 -0.042900 42.514700 30.315000 0.014000 -0.764100 -2.099900 0.000000 0.000000 0.000000 29.301100 17.621300 -40.887500 -2.384000 -9.623900 27.767100 -2.231500 -19.142300 -40.185200 -1.375300 -7.421400 20.970100 4.104000 -2.816900 -18.452400 5.269800 -4.264700 -12.111000 2.617300 -2.187700 -2.634800 -2.015200 -6.866700 -16.059100 -2.518500 -9.329000 42.392200 -2.716300 -4.426700 18.700100 0.000000 -0.000000 0.000000 -86.171900 26.762700 31.140900 17.530600 -27.552000 -4.329900 -0.000000 0.000000 -6.013800 2.008800 16.826000 0.581700 -7.125000 0.000000 -0.000000 -23.905300 45.355400 -0.222600 0.000000 -0.000000 0.000000 74.739500 -22.070500 29.791700 -13.046300 21.355100 -2.470100 0.000000 -0.000000 -17.683500 -1.421800 14.687500 -0.360600 7.125000 -0.000000 -0.000000 17.575100 -15.710700 12.783400 
